<?xml version="1.0" encoding="UTF-8" standalone="no"?>
<!-- Generator: Adobe Illustrator 18.0.0, SVG Export Plug-In . SVG Version: 6.00 Build 0)  -->

<svg
   xmlns:dc="http://purl.org/dc/elements/1.1/"
   xmlns:cc="http://creativecommons.org/ns#"
   xmlns:rdf="http://www.w3.org/1999/02/22-rdf-syntax-ns#"
   xmlns:svg="http://www.w3.org/2000/svg"
   xmlns="http://www.w3.org/2000/svg"
   xmlns:sodipodi="http://sodipodi.sourceforge.net/DTD/sodipodi-0.dtd"
   xmlns:inkscape="http://www.inkscape.org/namespaces/inkscape"
   version="1.1"
   id="Calque_1"
   x="0px"
   y="0px"
   viewBox="0 0 1100.2603 578.46808"
   enable-background="new 0 0 1940 640"
   xml:space="preserve"
   inkscape:version="0.91 r13725"
   sodipodi:docname="betterdocs.svg"
   width="1100.2603"
   height="578.46808"><metadata
     id="metadata35"><rdf:RDF><cc:Work
         rdf:about=""><dc:format>image/svg+xml</dc:format><dc:type
           rdf:resource="http://purl.org/dc/dcmitype/StillImage" /><dc:title></dc:title></cc:Work></rdf:RDF></metadata><defs
     id="defs33" /><sodipodi:namedview
     pagecolor="#ffffff"
     bordercolor="#666666"
     borderopacity="1"
     objecttolerance="10"
     gridtolerance="10"
     guidetolerance="10"
     inkscape:pageopacity="0"
     inkscape:pageshadow="2"
     inkscape:window-width="1360"
     inkscape:window-height="705"
     id="namedview31"
     showgrid="false"
     inkscape:zoom="0.22627417"
     inkscape:cx="1190.2584"
     inkscape:cy="485.31044"
     inkscape:window-x="-8"
     inkscape:window-y="-8"
     inkscape:window-maximized="1"
     inkscape:current-layer="Calque_1"
     fit-margin-top="0"
     fit-margin-left="0"
     fit-margin-right="0"
     fit-margin-bottom="0" /><g
     id="g3"
     transform="translate(-28.6,-43.2)"><path
       d="m 156.1,273.9 -127.1,0 0,142.7 84.6,76.2 0,-138.6 45.2,0 c 28.7,0 42.9,13.8 42.9,36 l 0,106 c 0,22.2 -13.4,37.1 -42.9,37.1 l -130.2,0 0,80.7 127,0 c 68.1,0.4 132,-33.7 132,-111.7 l 0,-114 C 288.1,308.7 224.2,273.9 156.1,273.9 l 0,0 z"
       id="path5"
       inkscape:connector-curvature="0"
       style="fill:#161616" /><path
       d="m 701.9,502.3 0,-117.1 c 0,-42.1 75.8,-51.7 98.7,-9.6 l 70,-28.3 C 843,286.8 792.9,269.2 751.2,269.2 c -68.1,0 -135.5,39.4 -135.5,115.9 l 0,117.1 c 0,77.3 67.3,115.9 133.9,115.9 42.9,0 94.1,-21 122.5,-76.2 l -75,-34.4 c -18.3,47.3 -95.2,35.8 -95.2,-5.2 l 0,0 z"
       id="path7"
       inkscape:connector-curvature="0"
       style="fill:#161616" /><path
       d="m 1011.4069,404.66806 c -26.39995,-5.7 -43.99995,-15.3 -45.19995,-31.8 1.5,-39.4 62.39995,-40.9 97.99995,-3.1 l 56.3,-43.2 c -35.2,-42.9 -75,-54.3 -115.9,-54.3 -62.39995,0 -122.79995,35.2 -122.79995,101.8 0,64.7 49.7,99.5 104.5,107.9 27.89995,3.8 58.89995,14.9 58.19995,34.1 -2.3,36.4 -77.29995,34.4 -111.39995,-6.9 l -54.3,50.9 c 31.8,40.9 75,61.6 115.6,61.6 62.39995,0 131.59995,-36 134.29995,-101.8 3.6,-83 -56.8,-104.1 -117.3,-115.2 l 0,0 z"
       id="path9"
       inkscape:connector-curvature="0"
       style="fill:#161616" /></g><g
     id="g19"
     transform="translate(-28.6,-43.2)"><path
       d="m 103.3,43.3 -74.7,0 0,77.1 47.7,43 0,-81.7 27.8,0 c 29.6,0 29.6,37.2 0,37.2 l -18.3,0 0,35.6 18.3,0 c 29.6,0 29.6,37.2 0,37.2 l -75.5,0 0,38.3 74.6,0 c 38.5,0 68.3,-15.4 69.4,-53.6 0,-17.6 -4.8,-30.7 -13.3,-39.8 8.5,-9.1 13.3,-22.2 13.3,-39.8 -1,-38.1 -30.8,-53.5 -69.3,-53.5 z"
       id="path21"
       inkscape:connector-curvature="0"
       style="fill:#3e82e5" /><polygon
       points="529.8,81.7 529.8,230 577.6,230 577.6,81.7 625.7,81.7 625.7,43.3 358.7,43.3 358.7,81.7 406.8,81.7 406.8,230 454.5,230 454.5,81.7 "
       id="polygon23"
       style="fill:#3e82e5" /><polygon
       points="296.5,160.5 296.5,112.8 245.4,112.8 245.4,81.7 341.7,81.7 341.7,43.3 197.6,43.3 197.6,230 341.7,230 341.7,191.7 245.4,191.7 245.4,160.5 "
       id="polygon25"
       style="fill:#3e82e5" /><polygon
       points="741.3,160.5 741.3,112.8 690.1,112.8 690.1,81.7 786.4,81.7 786.4,43.3 642.4,43.3 642.4,230 786.4,230 786.4,191.7 690.1,191.7 690.1,160.5 "
       id="polygon27"
       style="fill:#3e82e5" /><path
       d="m 918.6,166 c 22.5,-7.1 36.5,-26.6 36.5,-61.1 -1,-43.6 -30.8,-61.7 -69.2,-61.7 l -74.5,0 0,186.8 47.6,0 0,-59.2 8.4,0 43.2,59.2 58.7,0 -50.7,-64 z m -31.9,-35.8 -27.7,0 0,-48.5 27.7,0 c 29.6,0 29.6,48.5 0,48.5 z"
       id="path29"
       inkscape:connector-curvature="0"
       style="fill:#3e82e5" /><flowRoot
       xml:space="preserve"
       id="flowRoot4213"
       style="font-style:normal;font-weight:normal;font-size:40px;line-height:125%;font-family:sans-serif;letter-spacing:0px;word-spacing:0px;fill:#000000;fill-opacity:1;stroke:none;stroke-width:1px;stroke-linecap:butt;stroke-linejoin:miter;stroke-opacity:1"><flowRegion
         id="flowRegion4215"><rect
           id="rect4217"
           width="294.01859"
           height="291.52692"
           x="1465.1096"
           y="154.12183" /></flowRegion><flowPara
         id="flowPara4219"></flowPara></flowRoot></g><path
     inkscape:connector-curvature="0"
     style="fill:#161616"
     d="m 422.31942,226.64861 c -70.4,0 -140.39998,38.3 -140.39998,116.7 l 0,116 c 0,77.7 70.39998,116.7 141.19998,116.7 70.4,0 140.4,-39 140.4,-116.7 l 0,-116 c 0,-78.1 -70.8,-116.7 -141.2,-116.7 z m 55.1,232.7 c 0,24.5 -27.6,37.1 -54.7,37.1 -27.6,0 -55.1,-11.9 -55.1,-37.1 l 0,-116 c 0,-24.9 26.8,-38.3 53.6,-38.3 27.9,0 56.3,11.9 56.3,38.3 l 0,116 z"
     id="path15-5" /></svg>