<?xml version="1.0" encoding="UTF-8" standalone="no"?>
<!-- Generator: Adobe Illustrator 18.0.0, SVG Export Plug-In . SVG Version: 6.00 Build 0)  -->

<svg
   xmlns:dc="http://purl.org/dc/elements/1.1/"
   xmlns:cc="http://creativecommons.org/ns#"
   xmlns:rdf="http://www.w3.org/1999/02/22-rdf-syntax-ns#"
   xmlns:svg="http://www.w3.org/2000/svg"
   xmlns="http://www.w3.org/2000/svg"
   xmlns:sodipodi="http://sodipodi.sourceforge.net/DTD/sodipodi-0.dtd"
   xmlns:inkscape="http://www.inkscape.org/namespaces/inkscape"
   version="1.1"
   id="Calque_1"
   x="0px"
   y="0px"
   viewBox="0 0 1100.2603 578.46808"
   enable-background="new 0 0 1940 640"
   xml:space="preserve"
   inkscape:version="0.91 r13725"
   sodipodi:docname="mrs_robot.svg"
   width="1100.2603"
   height="578.46808"><metadata
     id="metadata35"><rdf:RDF><cc:Work
         rdf:about=""><dc:format>image/svg+xml</dc:format><dc:type
           rdf:resource="http://purl.org/dc/dcmitype/StillImage" /><dc:title></dc:title></cc:Work></rdf:RDF></metadata><defs
     id="defs33" /><sodipodi:namedview
     pagecolor="#ffffff"
     bordercolor="#666666"
     borderopacity="1"
     objecttolerance="10"
     gridtolerance="10"
     guidetolerance="10"
     inkscape:pageopacity="0"
     inkscape:pageshadow="2"
     inkscape:window-width="1366"
     inkscape:window-height="745"
     id="namedview31"
     showgrid="false"
     inkscape:zoom="0.32"
     inkscape:cx="194.43506"
     inkscape:cy="290.89341"
     inkscape:window-x="-8"
     inkscape:window-y="-8"
     inkscape:window-maximized="1"
     inkscape:current-layer="Calque_1"
     fit-margin-top="0"
     fit-margin-left="0"
     fit-margin-right="0"
     fit-margin-bottom="0" /><path
     style="font-style:normal;font-weight:normal;font-size:40px;line-height:125%;font-family:sans-serif;letter-spacing:0px;word-spacing:0px;fill:#9b59b6;fill-opacity:1;stroke:none;stroke-width:1px;stroke-linecap:butt;stroke-linejoin:miter;stroke-opacity:1"
     d="M 1.4433594 1.1425781 L 1.4433594 122.26367 L 45.632812 176.99023 L 45.632812 61.201172 L 79.324219 140.18164 L 111.67188 140.18164 L 145.36328 61.201172 L 145.36328 182.90625 L 191.99609 182.90625 L 191.99609 1.1425781 L 137.55078 1.1425781 L 96.78125 92.330078 L 55.886719 1.1425781 L 1.4433594 1.1425781 z M 421.73047 42.037109 C 400.08333 42.037109 382.99349 46.431641 370.46094 55.220703 C 358.00977 63.928385 351.78516 74.873047 351.78516 88.056641 C 351.78516 98.310547 354.79622 106.89714 360.81836 113.81445 C 366.84049 120.65039 376.07617 125.69596 388.52734 128.95117 C 393.08464 130.17188 398.13021 131.22982 403.66406 132.125 C 409.2793 132.9388 413.71549 133.71094 416.9707 134.44336 C 423.80664 135.82682 428.44531 137.29167 430.88672 138.83789 C 433.32812 140.30273 434.54883 142.70443 434.54883 146.04102 C 434.54883 149.78451 432.47461 152.63281 428.32422 154.58594 C 424.17383 156.45768 417.78451 157.39258 409.1582 157.39258 C 402.56641 157.39258 396.38151 156.74154 390.60352 155.43945 C 384.82552 154.05599 379.65885 152.42839 375.10156 150.55664 C 369.81185 148.44076 365.70117 146.48763 362.77148 144.69727 C 359.92318 142.82552 357.40039 141.11654 355.20312 139.57031 L 351.17578 139.57031 L 351.17578 175.70312 C 357.19792 178.47005 365.17318 180.99284 375.10156 183.27148 C 385.02995 185.55013 396.09766 186.68945 408.30469 186.68945 C 430.35872 186.68945 447.73242 182.3763 460.42773 173.75 C 473.12305 165.04232 479.4707 153.60938 479.4707 139.44922 C 479.4707 129.76497 476.70378 121.70833 471.16992 115.2793 C 465.63607 108.76888 457.09115 104.00716 445.53516 100.99609 C 440.32682 99.69401 435.11849 98.636068 429.91016 97.822266 C 424.7832 96.927083 419.98177 96.031901 415.50586 95.136719 C 407.36784 93.427734 402.20117 91.71875 400.00391 90.009766 C 397.80664 88.300781 396.70703 85.819661 396.70703 82.564453 C 396.70703 78.983724 399.10872 76.216797 403.91016 74.263672 C 408.79297 72.310547 414.77344 71.333984 421.85352 71.333984 C 430.39844 71.333984 438.82031 72.757161 447.12109 75.605469 C 455.50326 78.372396 462.95052 81.994792 469.46094 86.470703 L 473.24609 86.470703 L 473.24609 51.802734 C 467.95638 49.442708 460.59049 47.245443 451.15039 45.210938 C 441.79167 43.095052 431.98438 42.037109 421.73047 42.037109 z M 324.80859 45.332031 C 318.78646 45.332031 312.19271 46.715495 305.03125 49.482422 C 297.86979 52.167969 289.44792 57.662109 279.76367 65.962891 L 279.76367 45.820312 L 235.81836 45.820312 L 235.81836 182.90625 L 279.76367 182.90625 L 279.76367 91.109375 C 285.29753 89.15625 290.46419 87.772786 295.26562 86.958984 C 300.06706 86.145182 305.60091 85.738281 311.86719 85.738281 C 314.63411 85.738281 318.09375 85.901042 322.24414 86.226562 C 326.39453 86.552083 329.4056 87.040365 331.27734 87.691406 L 335.18359 87.691406 L 335.18359 45.820312 C 333.71875 45.657552 332.00977 45.536458 330.05664 45.455078 C 328.10352 45.373698 326.35482 45.332031 324.80859 45.332031 z M 510.35547 134.93164 L 510.35547 182.90625 L 556.00781 182.90625 L 556.00781 134.93164 L 510.35547 134.93164 z "
     id="text4147" /><path
     style="font-style:normal;font-weight:normal;font-size:40px;line-height:125%;font-family:sans-serif;letter-spacing:0px;word-spacing:0px;fill:#ffffff;fill-opacity:1;stroke:none;stroke-width:1px;stroke-linecap:butt;stroke-linejoin:miter;stroke-opacity:1"
     d="M 495.31445 218.04688 L 495.31445 474.46875 L 552.16992 474.46875 L 554.64062 465.24023 C 561.67188 469.41504 569.08838 472.59961 576.88867 474.79688 C 584.68896 476.99414 593.75293 478.09375 604.08008 478.09375 C 628.14014 478.09375 648.19043 468.91943 664.23047 450.57227 C 680.38037 432.2251 688.45508 408.49463 688.45508 379.38086 C 688.45508 349.71777 682.13818 326.48291 669.50391 309.67383 C 656.86963 292.75488 638.85205 284.29492 615.45117 284.29492 C 603.03662 284.29492 592.05029 286.54639 582.49219 291.05078 C 573.04395 295.55518 563.75928 301.43262 554.64062 308.68359 L 554.64062 218.04688 L 495.31445 218.04688 z M 2.2480469 229.08789 L 2.2480469 393.04297 L 65.199219 471.00586 L 65.199219 384.49023 L 94.369141 384.49023 L 161.27539 474.46875 L 238.56445 474.46875 L 156.66211 369.32812 C 172.2627 361.74756 184.23633 352.24609 192.58594 340.82031 C 201.04541 329.39453 205.27539 314.61768 205.27539 296.49023 C 205.27539 283.30664 202.52832 272.37451 197.03516 263.69531 C 191.65186 254.90625 184.34766 247.76465 175.11914 242.27148 C 166.00049 236.77832 156.22217 233.2085 145.78516 231.56055 C 135.34814 229.9126 122.87891 229.08789 108.37695 229.08789 L 2.2480469 229.08789 z M 966.79297 236.50391 L 966.79297 289.4043 L 942.4043 289.4043 L 942.4043 329.61328 L 966.79297 329.61328 L 966.79297 416.13086 C 966.79297 438.7627 972.39551 454.74756 983.60156 464.08594 C 994.91748 473.42432 1012.1123 478.09375 1035.1836 478.09375 C 1045.5107 478.09375 1054.2437 477.6001 1061.3848 476.61133 C 1068.5259 475.73242 1075.2842 474.46826 1081.6562 472.82031 L 1081.6562 432.11523 L 1076.7109 432.11523 C 1074.7334 433.21387 1071.2178 434.42383 1066.1641 435.74219 C 1061.2202 437.06055 1057.2109 437.71875 1054.1348 437.71875 C 1046.6641 437.71875 1040.9512 436.62109 1036.9961 434.42383 C 1033.1509 432.1167 1030.46 429.04053 1028.9219 425.19531 C 1027.2739 421.3501 1026.395 417.00977 1026.2852 412.17578 C 1026.1753 407.3418 1026.1191 401.68311 1026.1191 395.20117 L 1026.1191 329.61328 L 1081.6562 329.61328 L 1081.6562 289.4043 L 1026.1191 289.4043 L 1026.1191 236.50391 L 966.79297 236.50391 z M 65.199219 274.24219 L 88.107422 274.24219 C 95.687988 274.24219 102.33398 274.46289 108.04688 274.90234 C 113.75977 275.23193 118.7583 276.27539 123.04297 278.0332 C 129.19531 280.56006 133.53564 284.01953 136.0625 288.41406 C 138.58936 292.80859 139.85156 298.08203 139.85156 304.23438 C 139.85156 311.15576 138.80811 316.7041 136.7207 320.87891 C 134.74316 324.94385 131.55859 328.68018 127.16406 332.08594 C 122.5498 335.60156 116.83496 337.85303 110.02344 338.8418 C 103.21191 339.83057 94.753906 340.32422 84.646484 340.32422 L 65.199219 340.32422 L 65.199219 274.24219 z M 351.11914 283.63477 C 319.25879 283.63477 294.37451 292.36963 276.4668 309.83789 C 258.66895 327.30615 249.76953 351.36572 249.76953 382.01758 C 249.76953 412.44971 258.61475 436.45508 276.30273 454.0332 C 294.10059 471.50146 319.03906 480.23633 351.11914 480.23633 C 383.19922 480.23633 408.0835 471.50146 425.77148 454.0332 C 443.56934 436.45508 452.46875 412.44971 452.46875 382.01758 C 452.46875 351.58545 443.62354 327.58008 425.93555 310.00195 C 408.35742 292.42383 383.41895 283.63477 351.11914 283.63477 z M 819.13672 283.63477 C 787.27637 283.63477 762.39209 292.36963 744.48438 309.83789 C 726.68652 327.30615 717.78906 351.36572 717.78906 382.01758 C 717.78906 412.44971 726.63232 436.45508 744.32031 454.0332 C 762.11816 471.50146 787.05664 480.23633 819.13672 480.23633 C 851.2168 480.23633 876.10107 471.50146 893.78906 454.0332 C 911.58691 436.45508 920.48633 412.44971 920.48633 382.01758 C 920.48633 351.58545 911.64111 327.58008 893.95312 310.00195 C 876.375 292.42383 851.43652 283.63477 819.13672 283.63477 z M 351.11914 325 C 356.83203 325 362.16162 325.93311 367.10547 327.80078 C 372.04932 329.66846 376.27734 332.85498 379.79297 337.35938 C 383.30859 341.75391 386.05566 347.63135 388.0332 354.99219 C 390.01074 362.35303 391 371.47119 391 382.34766 C 391 394.10303 390.01074 403.33154 388.0332 410.0332 C 386.16553 416.625 383.31006 422.28369 379.46484 427.00781 C 376.05908 431.29248 371.8833 434.36865 366.93945 436.23633 C 362.10547 437.99414 356.99658 438.87305 351.61328 438.87305 C 345.35107 438.87305 339.74854 437.88379 334.80469 435.90625 C 329.9707 433.92871 325.79688 430.79834 322.28125 426.51367 C 318.65576 422.00928 315.90869 416.07568 314.04102 408.71484 C 312.17334 401.24414 311.23828 392.45508 311.23828 382.34766 C 311.23828 371.03174 312.28369 361.63867 314.37109 354.16797 C 316.56836 346.69727 319.47803 340.81982 323.10352 336.53516 C 327.16846 331.9209 331.39844 328.84473 335.79297 327.30664 C 340.29736 325.76855 345.40625 325 351.11914 325 z M 819.13672 325 C 824.84961 325 830.17725 325.93311 835.12109 327.80078 C 840.06494 329.66846 844.29492 332.85498 847.81055 337.35938 C 851.32617 341.75391 854.07324 347.63135 856.05078 354.99219 C 858.02832 362.35303 859.01758 371.47119 859.01758 382.34766 C 859.01758 394.10303 858.02832 403.33154 856.05078 410.0332 C 854.18311 416.625 851.32764 422.28369 847.48242 427.00781 C 844.07666 431.29248 839.90088 434.36865 834.95703 436.23633 C 830.12305 437.99414 825.01416 438.87305 819.63086 438.87305 C 813.36865 438.87305 807.76611 437.88379 802.82227 435.90625 C 797.98828 433.92871 793.8125 430.79834 790.29688 426.51367 C 786.67139 422.00928 783.92627 416.07568 782.05859 408.71484 C 780.19092 401.24414 779.25586 392.45508 779.25586 382.34766 C 779.25586 371.03174 780.29932 361.63867 782.38672 354.16797 C 784.58398 346.69727 787.49561 340.81982 791.12109 336.53516 C 795.18604 331.9209 799.41602 328.84473 803.81055 327.30664 C 808.31494 325.76855 813.42383 325 819.13672 325 z M 588.91797 329.11914 C 603.31006 329.11914 613.30713 333.56787 618.91016 342.4668 C 624.51318 351.36572 627.31641 364.05566 627.31641 380.53516 C 627.31641 398.99219 623.46973 412.83398 615.7793 422.0625 C 608.08887 431.29102 596.39014 435.90625 580.67969 435.90625 C 575.29639 435.90625 570.68115 435.63135 566.83594 435.08203 C 562.99072 434.53271 558.92529 433.48926 554.64062 431.95117 L 554.64062 339.00586 C 560.02393 335.81982 565.68262 333.40381 571.61523 331.75586 C 577.54785 329.99805 583.31494 329.11914 588.91797 329.11914 z "
     id="text4163" /></svg>